#!OML:ASF H:\Terrain\Patient Classification 1\Walking\liu\liu.ASF
:FULLY-SPECIFIED
:DEGREES
130
root 13.630620 23.901300 -28.614000 9.232650 11.883570 9.117540
lowerback -12.524416 -6.148005 -10.612906
upperback -1.787715 -7.330545 2.790435
thorax 6.284220 -3.830520 7.971870
lowerneck -29.529150 -8.274345 -19.821899
upperneck 30.826500 -9.711075 17.075550
head 16.029150 -4.060410 8.015520
rclavicle 0.000000 0.000000
rhumerus -71.482056 8.611876 -123.877792
rradius 48.583500
rwrist -28.639349
rhand -46.636799 -29.943300
rfingers 10.687531
rthumb -6.556785 -74.845650
lclavicle 0.000000 0.000000
lhumerus -48.193050 -36.904503 147.913208
lradius 53.212051
lwrist 7.519725
lhand -22.710150 -38.155502
lfingers 10.687531
lthumb 16.544550 6.379875
rfemur -63.509251 13.418251 8.087895
rtibia 41.161201
rfoot -33.423302 -16.756950
rtoes -31.260899
lfemur 30.493500 1.900515 -39.855450
ltibia -0.000000
lfoot -20.578350 -3.061380
ltoes -13.962481
131
root 13.589564 23.864552 -28.370998 9.226395 12.408960 9.546675
lowerback -12.140835 -6.310395 -11.114445
upperback -1.820085 -7.528965 2.719920
thorax 6.101940 -3.929865 8.176200
lowerneck -29.540100 -8.371170 -19.924650
upperneck 31.063049 -9.794910 16.925098
head 16.127850 -4.125150 7.969845
rclavicle -0.000000 0.000000
rhumerus -71.556000 8.381310 -123.776703
rradius 47.948997
rwrist -28.593899
rhand -46.073399 -32.172001
rfingers 10.687531
rthumb -6.012690 -77.084999
lclavicle -0.000000 0.000000
lhumerus -48.701401 -35.657551 148.126053
lradius 52.057350
lwrist 7.256790
lhand -20.999250 -37.071152
lfingers 10.687531
lthumb 18.194399 7.371420
rfemur -63.055950 12.299671 8.335350
rtibia 41.813698
rfoot -32.057102 -15.146250
rtoes -29.534550
lfemur 31.470451 1.802475 -39.803402
ltibia -0.000000
lfoot -19.671001 -3.055260
ltoes -14.622074
132
root 13.544909 23.830950 -28.117950 9.451860 12.560340 9.487230
lowerback -12.233656 -6.268575 -11.109659
upperback -1.857840 -7.470270 2.791035
thorax 6.111135 -3.900510 8.252520
lowerneck -29.701500 -8.485590 -20.191050
upperneck 30.904800 -9.860430 17.014648
head 16.124100 -4.160340 8.032290
rclavicle -0.000000 -0.000000
rhumerus -71.560654 7.909110 -123.543594
rradius 47.290501
rwrist -28.331699
rhand -43.207802 -42.460499
rfingers 10.687531
rthumb -3.245385 -87.413696
lclavicle -0.000000 -0.000000
lhumerus -49.022400 -34.574699 148.373093
lradius 50.547752
lwrist 6.710310
lhand -20.245800 -36.503700
lfingers 10.687531
lthumb 18.920851 7.894950
rfemur -63.116997 11.339746 9.274125
rtibia 42.715050
rfoot -29.437801 -14.629695
rtoes -30.798901
lfemur 32.166149 2.057925 -39.189598
ltibia -0.000000
lfoot -19.008450 -3.515760
ltoes -14.573730
133
root 13.508190 23.824799 -27.855900 9.589200 12.968475 9.179280
lowerback -12.364800 -6.288255 -10.652534
upperback -1.789530 -7.525380 2.785500
thorax 6.225090 -3.926025 7.970880
lowerneck -30.120449 -8.512305 -19.896900
upperneck 30.693449 -9.891900 16.915501
head 16.115551 -4.148280 7.930515
rclavicle 0.000000 -0.000000
rhumerus -71.847305 7.706355 -123.527695
rradius 47.166603
rwrist -28.065151
rhand -38.845951 -52.714050
rfingers 10.687531
rthumb 0.967392 -97.682251
lclavicle 0.000000 -0.000000
lhumerus -49.309052 -33.519600 148.231506
lradius 49.210350
lwrist 6.114465
lhand -20.386051 -35.996998
lfingers 10.687531
lthumb 18.785549 8.410065
rfemur -63.060001 9.892545 10.702215
rtibia 43.618050
rfoot -25.347450 -15.200251
rtoes -34.489502
lfemur 32.897102 2.076345 -38.236801
ltibia 0.000000
lfoot -18.175201 -4.455720
ltoes -11.525160
134
root 13.476570 23.835600 -27.591450 9.498870 13.330935 8.931780
lowerback -12.162661 -6.372705 -10.308584
upperback -1.638075 -7.681935 2.817420
thorax 6.267705 -4.004700 7.796250
lowerneck -30.431700 -8.511195 -19.530149
upperneck 30.316502 -9.878685 16.696350
head 16.012199 -4.126530 7.773930
rclavicle 0.000000 0.000000
rhumerus -72.044846 7.901071 -123.601799
rradius 47.281349
rwrist -27.774599
rhand -40.048050 -51.013802
rfingers 10.687531
rthumb -0.193557 -95.983353
lclavicle 0.000000 0.000000
lhumerus -49.367996 -31.771049 147.852905
lradius 47.786850
lwrist 5.229000
lhand -19.847851 -35.659500
lfingers 10.687531
lthumb 19.304550 8.715256
rfemur -62.897999 8.503200 11.948460
rtibia 44.592148
rfoot -21.047100 -15.437250
rtoes -34.943550
lfemur 33.874802 2.156100 -37.373398
ltibia 0.000000
lfoot -16.961100 -5.217840
ltoes -9.894239
135
root 13.435275 23.846251 -27.333149 9.476475 13.582170 8.428080
lowerback -11.923380 -6.334126 -9.791880
upperback -1.632150 -7.701540 3.032760
thorax 6.117885 -4.004565 7.746000
lowerneck -29.995651 -8.669640 -20.095798
upperneck 29.654099 -10.020840 17.069700
head 15.747450 -4.202970 7.969006
rclavicle 0.000000 0.000000
rhumerus -72.277649 7.940925 -123.508804
rradius 47.249851
rwrist -27.637951
rhand -45.715202 -43.594799
rfingers 10.687531
rthumb -5.666850 -88.514252
lclavicle 0.000000 0.000000
lhumerus -49.640099 -30.158249 147.988953
lradius 45.953850
lwrist 4.210005
lhand -20.129250 -35.892452
lfingers 10.687531
lthumb 19.033199 8.499331
rfemur -62.965652 7.785975 13.119646
rtibia 45.749851
rfoot -17.602650 -15.523800
rtoes -30.654150
lfemur 34.698151 2.378385 -36.357151
ltibia 0.000000
lfoot -15.785549 -4.985685
ltoes -15.482700
136
root 13.388384 23.849251 -27.070202 9.630930 13.806046 7.918740
lowerback -12.094620 -6.195165 -9.079590
upperback -1.618560 -7.565955 3.007845
thorax 6.144465 -3.925860 7.327456
lowerneck -29.755199 -8.835435 -20.384850
upperneck 29.323799 -10.286685 17.535450
head 15.652649 -4.300605 8.141235
rclavicle -0.000000 0.000000
rhumerus -72.640656 7.632045 -123.735291
rradius 46.980598
rwrist -28.185452
rhand -45.661201 -44.415150
rfingers 10.687531
rthumb -5.614770 -89.335495
lclavicle -0.000000 0.000000
lhumerus -49.906349 -29.585249 147.932404
lradius 43.873650
lwrist 3.515400
lhand -21.345449 -36.628799
lfingers 10.687531
lthumb 17.860500 7.833285
rfemur -63.135899 7.135890 14.321804
rtibia 47.035648
rfoot -15.146099 -15.657450
rtoes -28.790100
lfemur 35.225849 2.610315 -35.309101
ltibia -0.000000
lfoot -14.510235 -4.738995
ltoes -19.486050
137
root 13.345440 23.840099 -26.801851 9.702060 13.733160 7.636590
lowerback -12.247650 -5.997105 -8.605170
upperback -1.527945 -7.326945 2.849895
thorax 6.238890 -3.801915 6.915689
lowerneck -30.194702 -8.891279 -20.137650
upperneck 29.247900 -10.439699 17.781448
head 15.730650 -4.310085 8.162415
rclavicle 0.000000 0.000000
rhumerus -72.964050 7.443120 -124.165497
rradius 46.433102
rwrist -28.132950
rhand -41.096550 -48.922348
rfingers 10.687531
rthumb -1.206344 -93.889648
lclavicle 0.000000 0.000000
lhumerus -50.071800 -28.723349 147.520798
lradius 41.967148
lwrist 2.907165
lhand -21.613050 -36.856800
lfingers 10.687531
lthumb 17.602499 7.620180
rfemur -63.355350 6.322515 15.460199
rtibia 48.565052
rfoot -13.083375 -15.094800
rtoes -30.967949
lfemur 35.862152 3.102630 -34.452301
ltibia 0.000000
lfoot -13.274805 -5.004285
ltoes -19.442850
138
root 13.306471 23.820599 -26.548351 9.756210 13.507424 7.383315
lowerback -11.994315 -5.679000 -8.206290
upperback -1.597140 -6.952050 2.819640
thorax 5.942820 -3.600015 6.729360
lowerneck -30.334198 -8.998620 -20.409451
upperneck 29.197201 -10.613745 18.303900
head 15.798149 -4.347480 8.375385
rclavicle -0.000000 -0.000000
rhumerus -73.225052 7.100039 -124.228058
rradius 45.901501
rwrist -27.126749
rhand -39.000000 -49.498798
rfingers 10.687531
rthumb 0.818603 -94.467300
lclavicle -0.000000 -0.000000
lhumerus -50.644798 -26.700901 147.148651
lradius 40.720051
lwrist 2.139795
lhand -20.661449 -36.394650
lfingers 10.687531
lthumb 18.520050 8.028570
rfemur -63.786152 5.372040 16.624350
rtibia 50.336552
rfoot -11.112240 -13.681591
rtoes -32.993851
lfemur 36.510448 3.739995 -33.634651
ltibia 0.000000
lfoot -11.659770 -5.287455
ltoes -20.172899
139
root 13.270875 23.799749 -26.300400 9.822044 13.383285 7.457295
lowerback -11.672640 -5.571525 -8.193464
upperback -1.633740 -6.827085 2.792910
thorax 5.706330 -3.531150 6.730965
lowerneck -30.236851 -8.999340 -20.477400
upperneck 29.093851 -10.627710 18.426600
head 15.753000 -4.348185 8.428261
rclavicle 0.000000 0.000000
rhumerus -73.155296 7.165815 -124.310242
rradius 45.694649
rwrist -26.967001
rhand -39.981453 -45.775948
rfingers 10.687531
rthumb -0.129331 -90.745499
lclavicle 0.000000 0.000000
lhumerus -50.701050 -22.818748 145.898102
lradius 39.369751
lwrist 0.815775
lhand -9.338429 -27.867752
lfingers 10.687531
lthumb 29.423248 15.677849
rfemur -64.072800 4.450350 17.284649
rtibia 52.078201
rfoot -9.659400 -11.943960
rtoes -33.133949
lfemur 37.188450 4.250250 -33.173401
ltibia 0.000000
lfoot -9.280440 -5.404485
ltoes -20.412899
140
root 13.229070 23.792850 -26.044350 9.836955 13.277325 7.671825
lowerback -11.516175 -5.572095 -8.376690
upperback -1.543230 -6.815625 2.674455
thorax 5.716605 -3.529815 6.717315
lowerneck -30.209249 -8.932575 -20.069700
upperneck 28.720798 -10.571295 18.184200
head 15.578100 -4.318095 8.264595
rclavicle 0.000000 0.000000
rhumerus -73.006195 7.405485 -124.539597
rradius 45.425251
rwrist -27.029099
rhand -41.773800 -40.245148
rfingers 10.687531
rthumb -1.860360 -85.209297
lclavicle 0.000000 0.000000
lhumerus -50.384399 -18.751949 144.133652
lradius 37.624950
lwrist -0.792288
lhand -3.396570 -24.993900
lfingers 10.687531
lthumb 35.129700 17.898300
rfemur -64.188751 4.040400 17.515350
rtibia 53.653198
rfoot -8.630670 -10.285125
rtoes -30.691650
lfemur 37.941299 4.732005 -32.874001
ltibia -0.000000
lfoot -6.929339 -5.237025
ltoes -19.475399
